#!OML:ASF H:\Terrain\Walking\May29\JustinRory\Justin.ASF
:FULLY-SPECIFIED
:DEGREES
98
root 13.891 16.7988 -7.8855 -5.62805 -41.8119 10.8391
lowerback 13.1903 0.942119 -7.38625
upperback 2.62023 0.100627 -1.27061
thorax -4.64033 0.114829 2.81417
lowerneck -15.8619 1.78776 -9.90823
upperneck 20.2219 4.2155 3.23687
head 8.6644 1.53877 3.23037
rclavicle -8.96519e-014 5.32743e-014
rhumerus -24.653 3.52229 -86.3824
rradius 113.159
rwrist 4.71319
rhand -42.5263 36.8783
rfingers 7.12502
rthumb -15.4022 7.47204
lclavicle -8.96519e-014 5.32743e-014
lhumerus 13.1005 -55.7375 85.8927
lradius 93.1851
lwrist -12.6251
lhand -13.3882 39.7214
lfingers 7.12502
lthumb 12.719 69.314
rfemur -34.4945 -10.7834 28.114
rtibia 45.83
rfoot -15.3474 -13.1879
rtoes 28.9338
lfemur -17.3423 -0.218019 -8.06799
ltibia 61.8709
lfoot 12.2092 -11.5055
ltoes -21.5613
99
root 13.7077 16.7308 -7.77678 -6.06449 -42.3246 10.4821
lowerback 13.152 1.10177 -6.89482
upperback 2.87688 0.396807 -1.17828
thorax -4.37628 0.239293 2.58667
lowerneck -16.1788 1.86629 -9.92865
upperneck 20.6449 4.3764 3.21738
head 8.85576 1.59357 3.26375
rclavicle 2.46493e-014 -4.37326e-015
rhumerus -24.1875 3.68243 -87.0596
rradius 112.493
rwrist 4.88785
rhand -42.6474 36.9597
rfingers 7.12502
rthumb -15.5188 7.56248
lclavicle 2.46493e-014 -4.37326e-015
lhumerus 14.4437 -56.2072 85.0843
lradius 92.7219
lwrist -12.7679
lhand -12.3888 40.3043
lfingers 7.12502
lthumb 13.6823 69.8345
rfemur -32.9462 -9.16227 28.1646
rtibia 46.0895
rfoot -16.289 -13.824
rtoes 26.277
lfemur -18.4514 0.0594351 -7.62307
ltibia 64.8679
lfoot 11.5429 -12.5682
ltoes -20.6279
100
root 13.529 16.6622 -7.68028 -5.71019 -42.7619 9.41651
lowerback 12.7047 1.18707 -5.78572
upperback 3.24727 0.71476 -1.01393
thorax -3.76257 0.36157 2.09004
lowerneck -16.2792 1.89637 -9.97049
upperneck 20.5011 4.45627 3.14627
head 8.82071 1.62625 3.25333
rclavicle 2.54444e-014 -2.3059e-014
rhumerus -23.582 3.73407 -87.7464
rradius 111.952
rwrist 4.88736
rhand -42.5926 36.659
rfingers 7.12502
rthumb -15.466 7.25771
lclavicle 2.54444e-014 -2.3059e-014
lhumerus 16.3527 -57.0145 83.6739
lradius 92.4864
lwrist -12.3479
lhand -12.3184 41.4143
lfingers 7.12502
lthumb 13.7502 70.94
rfemur -31.9344 -7.95507 29.1537
rtibia 46.5058
rfoot -17.2463 -14.713
rtoes 24.7514
lfemur -20.1082 0.263192 -6.57441
ltibia 67.6976
lfoot 10.0364 -13.6192
ltoes -20.5507
101
root 13.353 16.6004 -7.58685 -4.63507 -43.2103 7.45259
lowerback 12.7859 1.09565 -4.37414
upperback 3.09125 0.801405 -0.410804
thorax -3.97052 0.405557 1.91173
lowerneck -16.2078 2.13267 -10.0419
upperneck 20.8622 4.8784 2.787
head 8.91395 1.76152 3.19686
rclavicle 6.26172e-014 -1.19271e-015
rhumerus -23.6548 4.37724 -88.0031
rradius 111.617
rwrist 5.12698
rhand -41.9059 35.4971
rfingers 7.12502
rthumb -14.8045 6.04589
lclavicle 6.26172e-014 -1.19271e-015
lhumerus 16.291 -57.1857 84.0945
lradius 92.2936
lwrist -12.0896
lhand -12.1929 42.1115
lfingers 7.12502
lthumb 13.8711 71.629
rfemur -31.1681 -7.26494 31.0988
rtibia 47.0078
rfoot -18.4901 -15.6587
rtoes 25.0013
lfemur -21.9737 0.556871 -4.8144
ltibia 70.2781
lfoot 8.22619 -14.7517
ltoes -20.4766
102
root 13.1748 16.5606 -7.47745 -5.25876 -44.1404 7.65748
lowerback 12.8073 1.31009 -4.29489
upperback 3.15376 1.09431 -0.389277
thorax -3.93491 0.547026 1.84245
lowerneck -16.4592 2.35928 -9.84955
upperneck 21.2822 5.25944 2.44318
head 9.09656 1.89601 3.10872
rclavicle -8.56762e-014 4.37326e-015
rhumerus -23.3436 4.71832 -88.3178
rradius 111.165
rwrist 4.97779
rhand -41.1136 35.4301
rfingers 7.12502
rthumb -14.0411 5.92442
lclavicle -8.56762e-014 4.37326e-015
lhumerus 16.5879 -57.2832 84.0366
lradius 92.0704
lwrist -11.5416
lhand -12.1563 42.1755
lfingers 7.12502
lthumb 13.9063 71.6905
rfemur -30.1707 -6.64225 31.3913
rtibia 47.5994
rfoot -19.6197 -16.5212
rtoes 24.7182
lfemur -23.08 1.05203 -5.17429
ltibia 72.2639
lfoot 5.73168 -14.8805
ltoes -19.6976
103
root 12.9912 16.5242 -7.3718 -5.48453 -44.9094 7.79977
lowerback 12.5237 1.48742 -4.21931
upperback 3.16004 1.3518 -0.42893
thorax -3.78713 0.67101 1.72168
lowerneck -16.7234 2.60782 -9.38879
upperneck 21.5462 5.61715 2.02631
head 9.24122 2.03892 2.94637
rclavicle -1.22551e-013 -5.96354e-015
rhumerus -22.9994 4.73425 -88.8087
rradius 110.801
rwrist 4.4909
rhand -40.5679 36.1978
rfingers 7.12502
rthumb -13.5152 6.65635
lclavicle -1.22551e-013 -5.96354e-015
lhumerus 17.0406 -57.4931 83.7407
lradius 91.9056
lwrist -10.7245
lhand -12.4961 41.8967
lfingers 7.12502
lthumb 13.5789 71.4338
rfemur -29.5116 -6.24279 31.736
rtibia 48.1226
rfoot -20.672 -17.0867
rtoes 24.9372
lfemur -24.7413 1.5221 -5.55383
ltibia 73.8556
lfoot 3.48047 -14.308
ltoes -16.8281
104
root 12.813 16.4884 -7.28229 -5.3515 -45.3676 7.6813
lowerback 12.219 1.5515 -4.08176
upperback 3.12438 1.47067 -0.420544
thorax -3.66209 0.728089 1.63972
lowerneck -17.0746 2.83752 -8.84629
upperneck 21.7977 5.93713 1.60545
head 9.40608 2.16976 2.76803
rclavicle -5.96354e-015 -1.03368e-014
rhumerus -22.5994 4.68671 -89.296
rradius 110.562
rwrist 4.13502
rhand -40.1704 36.533
rfingers 7.12502
rthumb -13.132 6.96648
lclavicle -5.96354e-015 -1.03368e-014
lhumerus 17.2702 -57.7332 83.5758
lradius 91.9322
lwrist -10.0893
lhand -12.7525 41.9722
lfingers 7.12502
lthumb 13.3318 71.5257
rfemur -29.0638 -5.9877 32.2014
rtibia 48.653
rfoot -21.7124 -17.3301
rtoes 24.919
lfemur -26.7857 1.93696 -5.73008
ltibia 74.9725
lfoot 1.72272 -13.6354
ltoes -15.0678
105
root 12.6409 16.45 -7.19819 -5.28278 -45.6107 7.28787
lowerback 12.2275 1.50159 -3.77741
upperback 3.21424 1.44522 -0.358735
thorax -3.5659 0.710384 1.538
lowerneck -17.515 3.00046 -8.51394
upperneck 21.9544 6.17438 1.40562
head 9.54674 2.27424 2.69051
rclavicle 3.72721e-014 2.78299e-015
rhumerus -22.0238 4.66098 -89.8055
rradius 110.285
rwrist 3.9343
rhand -39.7891 36.2445
rfingers 7.12502
rthumb -12.7644 6.65473
lclavicle 3.72721e-014 2.78299e-015
lhumerus 17.5333 -58.0035 83.1557
lradius 92.0437
lwrist -9.81741
lhand -12.9256 42.4617
lfingers 7.12502
lthumb 13.165 72.0261
rfemur -28.3278 -5.94523 32.7571
rtibia 49.1618
rfoot -22.5296 -17.5626
rtoes 23.0923
lfemur -28.5405 2.06589 -5.81992
ltibia 75.662
lfoot 0.0096377 -12.3569
ltoes -15.2315
106
root 12.4666 16.4139 -7.1147 -5.45392 -45.8986 7.11516
lowerback 12.4553 1.57013 -3.74939
upperback 3.2308 1.53264 -0.245803
thorax -3.68039 0.754479 1.62224
lowerneck -17.7679 3.11249 -8.40834
upperneck 22.1294 6.35909 1.30366
head 9.65297 2.34673 2.67275
rclavicle -1.59028e-014 -3.18055e-015
rhumerus -21.7201 4.51997 -90.1046
rradius 110.294
rwrist 3.65161
rhand -39.753 35.7948
rfingers 7.12502
rthumb -12.7297 6.20283
lclavicle -1.59028e-014 -3.18055e-015
lhumerus 17.3275 -58.3535 83.1894
lradius 92.1806
lwrist -10.0657
lhand -12.8691 42.6369
lfingers 7.12502
lthumb 13.2194 72.1978
rfemur -27.5049 -5.90354 33.0682
rtibia 49.7031
rfoot -23.2892 -17.4385
rtoes 21.7267
lfemur -30.1117 2.25952 -6.17589
ltibia 75.9283
lfoot -1.95765 -10.764
ltoes -15.3962
107
root 12.2929 16.3762 -7.03392 -5.4319 -46.2092 6.9632
lowerback 12.6109 1.66689 -3.91518
upperback 3.0914 1.64161 -0.021088
thorax -3.92861 0.816594 1.92804
lowerneck -17.7999 3.32055 -8.18269
upperneck 22.3177 6.67984 0.956788
head 9.73212 2.46251 2.56188
rclavicle 7.45443e-015 -9.54166e-015
rhumerus -21.8215 4.67434 -90.1874
rradius 110.458
rwrist 3.05857
rhand -40.1141 35.9629
rfingers 7.12502
rthumb -13.0778 6.39295
lclavicle 7.45443e-015 -9.54166e-015
lhumerus 16.6052 -58.4837 83.9473
lradius 92.2154
lwrist -10.5727
lhand -12.6323 43.0176
lfingers 7.12502
lthumb 13.4476 72.5635
rfemur -26.9148 -5.88624 33.3737
rtibia 50.2555
rfoot -24.2148 -16.8872
rtoes 22.2839
lfemur -31.9227 2.65463 -6.59477
ltibia 75.7725
lfoot -4.32192 -9.73331
ltoes -16.4377
108
root 12.1215 16.3239 -6.95547 -5.24338 -46.6202 6.56682
lowerback 12.7763 1.68231 -3.91362
upperback 2.98782 1.66305 0.176301
thorax -4.13503 0.8331 2.12555
lowerneck -17.7002 3.65626 -7.95872
upperneck 22.3033 7.10306 0.830389
head 9.6996 2.66362 2.53056
rclavicle -3.17062e-014 -2.0276e-014
rhumerus -21.8403 5.13205 -90.4551
rradius 110.444
rwrist 2.68872
rhand -40.4893 35.7365
rfingers 7.12502
rthumb -13.4394 6.19006
lclavicle -3.17062e-014 -2.0276e-014
lhumerus 16.1319 -58.3969 84.278
lradius 92.1224
lwrist -11.0422
lhand -12.7243 43.5335
lfingers 7.12502
lthumb 13.3589 73.0853
rfemur -26.299 -5.97657 33.9366
rtibia 50.7219
rfoot -25.0714 -16.4625
rtoes 22.6439
lfemur -33.6757 3.08175 -6.85222
ltibia 75.1865
lfoot -6.5725 -8.58435
ltoes -17.1569
109
root 11.953 16.2689 -6.87926 -4.99359 -47.0067 6.10686
lowerback 12.986 1.72434 -3.72272
upperback 2.87078 1.73736 0.252653
thorax -4.37493 0.874115 2.07953
lowerneck -17.4287 3.83784 -7.75477
upperneck 22.1667 7.25214 0.879964
head 9.5966 2.76515 2.52054
rclavicle -2.6339e-014 1.03368e-014
rhumerus -21.9772 5.32532 -90.7497
rradius 110.576
rwrist 2.54801
rhand -40.9206 34.7621
rfingers 7.12502
rthumb -13.8551 5.24362
lclavicle -2.6339e-014 1.03368e-014
lhumerus 15.8714 -58.5231 84.0745
lradius 92.227
lwrist -11.3698
lhand -13.0088 43.5963
lfingers 7.12502
lthumb 13.0847 73.1659
rfemur -25.679 -6.31586 34.5597
rtibia 51.0531
rfoot -25.667 -16.0271
rtoes 22.2356
lfemur -35.31 3.43929 -7.13428
ltibia 74.1004
lfoot -8.29558 -7.3043
ltoes -17.1191
110
root 11.782 16.2297 -6.80523 -4.44077 -47.3091 5.44623
lowerback 12.9451 1.80985 -3.36153
upperback 2.80327 1.90569 0.346456
thorax -4.42641 0.955876 1.9456
lowerneck -17.5157 3.7958 -7.29456
upperneck 22.244 7.16126 0.537725
head 9.67746 2.71554 2.32341
rclavicle 1.61016e-014 1.51076e-014
rhumerus -22.2853 5.24706 -90.7684
rradius 110.826
rwrist 1.84617
rhand -40.9923 34.4728
rfingers 7.12502
rthumb -13.9242 4.959
lclavicle 1.61016e-014 1.51076e-014
lhumerus 15.8161 -58.7749 83.8416
lradius 92.4054
lwrist -11.5762
lhand -13.0849 43.5441
lfingers 7.12502
lthumb 13.0113 73.1183
rfemur -25.1211 -6.83033 35.3067
rtibia 51.2014
rfoot -26.45 -15.2082
rtoes 23.3551
lfemur -36.9521 3.65977 -7.33843
ltibia 72.4408
lfoot -9.82387 -6.5088
ltoes -17.6311
